# xmcd
#
# Track frame offsets: 
#        150
#        19268
#        30868
#
# Disc length: 692 seconds
#
# Revision: 2
# Processed by: cddbd v1.5.2PL0 Copyright (c) Steve Scherf et al.
# Submitted via: ExactAudioCopy v0.99pb4
#
DISCID=1502b203
DTITLE=The Bluetones - Never Going Nowhere [CD 1)
DYEAR=2003
DGENRE=Rock
TTITLE0=Never Going Nowhere
TTITLE1=Suffer in Silence
TTITLE2=Never Going Nowhere (69corp vs. The Bluetones)
EXTD=
EXTT0=
EXTT1=
EXTT2=
PLAYORDER=
